<svg xmlns="http://www.w3.org/2000/svg" width="24px" height="24px" viewBox="0 0 24 24" version="1.1">
<path style=" stroke:none;fill-rule:nonzero;fill:rgb(5.882353%,5.882353%,5.882353%);fill-opacity:1;" d="M 8 7 L 8 12 C 8 12.550781 7.550781 13 7 13 C 6.449219 13 6 12.550781 6 12 L 6 7 C 6.003906 5.121094 7.761719 4 9.5 4 C 10.628906 4 11.445312 4.339844 12 4.835938 C 12.554688 4.339844 13.371094 4 14.5 4 C 16.238281 4 17.996094 5.121094 18 7 L 18 12 C 18 12.550781 17.550781 13 17 13 C 16.449219 13 16 12.550781 16 12 L 16 7 C 15.941406 6.242188 15.160156 6 14.5 6 C 13.851562 6 13.066406 6.246094 13 7 L 13 10 C 13 10.550781 12.550781 11 12 11 C 11.449219 11 11 10.550781 11 10 L 11 7 C 10.941406 6.238281 10.152344 6 9.5 6 C 8.851562 6 8.066406 6.246094 8 7 Z M 8 7 "/>
<path style=" stroke:none;fill-rule:evenodd;fill:rgb(5.882353%,5.882353%,5.882353%);fill-opacity:1;" d="M 16 1 L 8 1 C 4.074219 1 1.085938 4.023438 1 7.988281 L 1 13 C 1 18.113281 4.558594 23 10 23 L 15.480469 23 C 16.871094 23 18 21.871094 18 20.480469 C 18 19.113281 16.867188 18.035156 15.5 18 C 15.21875 17.992188 14.882812 17.996094 14.515625 18 C 12.4375 18.023438 9.269531 18.054688 8.285156 16.296875 C 12.808594 17.125 23 18.5 23 11 L 23 8 C 22.90625 4.035156 19.933594 1 16 1 Z M 3 13 L 3 7.988281 C 3.117188 5.113281 5.136719 3 8 3 L 16 3 C 18.867188 3 20.878906 5.125 21 8 L 21 11 C 21 17 10.34375 14.804688 7.242188 14.03125 C 6.621094 13.875 6 14.359375 6 15 C 6 16.085938 6.273438 17.011719 6.859375 17.753906 C 8.535156 19.890625 11.894531 19.921875 14.519531 19.949219 C 14.859375 19.953125 15.1875 19.957031 15.496094 19.964844 C 15.777344 19.96875 16 20.199219 16 20.480469 C 16 20.765625 15.765625 21 15.480469 21 L 10 21 C 5.652344 21 3 17.015625 3 13 Z M 3 13 "/>
</svg>
